<svg width="320" height="78" viewBox="0 0 320 78" fill="none" xmlns="http://www.w3.org/2000/svg">
  <rect width="320" height="78" rx="8" fill="white"/>
  <path d="M34 39C34 27.9543 42.9543 19 54 19C65.0457 19 74 27.9543 74 39C74 50.0457 65.0457 59 54 59C42.9543 59 34 50.0457 34 39Z" stroke="#7C3AED" stroke-width="8"/>
  <path d="M62 39C62 27.9543 70.9543 19 82 19C93.0457 19 102 27.9543 102 39C102 50.0457 93.0457 59 82 59C70.9543 59 62 50.0457 62 39Z" stroke="#2563EB" stroke-width="8"/>
  <path d="M54 19C62.2 19 69.25 23.93 72.35 30.99" stroke="#22C55E" stroke-width="8" stroke-linecap="round"/>
  <path d="M82 59C73.8 59 66.75 54.07 63.65 47.01" stroke="#14B8A6" stroke-width="8" stroke-linecap="round"/>
  <text x="124" y="35" fill="#111827" font-family="Inter, Segoe UI, Arial, sans-serif" font-size="22" font-weight="800">Latinoamérica Comparte</text>
  <text x="124" y="56" fill="#64748B" font-family="Inter, Segoe UI, Arial, sans-serif" font-size="13" font-weight="600">Simulador de recorridos</text>
</svg>
